<?xml version="1.0" encoding="utf-8"?>
<!-- Generator: Adobe Illustrator 25.1.0, SVG Export Plug-In . SVG Version: 6.00 Build 0)  -->
<svg version="1.1" id="Layer_1" xmlns="http://www.w3.org/2000/svg" xmlns:xlink="http://www.w3.org/1999/xlink" x="0px" y="0px"
	 viewBox="0 0 300 429.21" style="enable-background:new 0 0 300 429.21;" xml:space="preserve">
<style type="text/css">
	.st0{fill-rule:evenodd;clip-rule:evenodd;fill:#99755B;}
	.st1{fill-rule:evenodd;clip-rule:evenodd;fill:#191947;}
	.st2{fill-rule:evenodd;clip-rule:evenodd;fill:#3C4CA0;}
	.st3{fill-rule:evenodd;clip-rule:evenodd;fill:#E4E4E4;}
	.st4{fill-rule:evenodd;clip-rule:evenodd;fill:#465CAA;}
	.st5{fill:#CFD1D2;}
	.st6{fill-rule:evenodd;clip-rule:evenodd;fill:#99755A;}
	.st7{fill-rule:evenodd;clip-rule:evenodd;fill:#7B896E;}
	.st8{fill-rule:evenodd;clip-rule:evenodd;fill:#A2B490;}
</style>
<g id="humaaans_x2F_sitting-2">
	
		<g id="A-Human_x2F_Sitting" transform="translate(190.000000, 200.500000) scale(-1, 1) translate(-190.000000, -200.500000) translate(40.000000, 24.000000)">
		<g id="Head_x2F_Front_x2F_Rad" transform="translate(82.000000, 0.000000)">
			<g id="Head" transform="translate(54.000000, 31.000000)">
				<path class="st0" d="M88.12,88.28H56.93l5.28-36.85c-8.42,5-16.69,7.42-20.57,6.43c-9.73-2.47-10.63-37.59-3.1-51.43
					s46.25-19.88,48.2,7.55c0.68,9.52-3.38,18.01-9.36,24.95L88.12,88.28z"/>
			</g>
			<path id="hair" class="st1" d="M154.35,35.85c3.32,0.17,7.37,1.63,9.12,4.88c2.26,4.23-0.97,9.03-4.5,10.99
				c6.42,5.59-5.19,13.23-9.97,13.55c0.88,3.39-3.14,4.56-5.35,5.46c1.39,1.7,1.82,4.35,0.16,6.03c-1.84,1.85-5.07,1.96-7.14,0.54
				c-0.52-0.36-0.62-0.82-1.02-1.23c-0.33-0.33-0.82-0.35-1.23-0.48c-1.12-0.37-1.83-1.58-2.33-2.64c-1.02-2.16-1.43-4.72-3.12-6.46
				c2.17-0.93,4.78-1.77,6.22-3.93c2.49-3.73-0.25-8.92-4.14-9.9c-3.52-0.89-7.49,1.02-9.74,3.91c-0.75-2.04-1.83-3.97-3.28-5.54
				c-0.88-0.95-2.45-2.32-0.39-2.86c4.56-1.21,9.3-1.63,13.9-2.65c-4.75-0.01-9.51,0.48-14.25,0.04c-1.48-0.14-2.99-0.37-3.71-1.93
				c-0.89-1.92-1.5-4.27-1.6-6.41c-1.6,0.55-3.16,1.39-4.89,1.34c-0.65-0.02-1.29-0.19-1.95-0.2c-0.75-0.01-1.2,0.29-1.76,0.8
				c-2.16,1.99-4.8,3.29-7.6,3.92c-1.57,0.35-3.38,0.73-4.98,0.62c-0.24-0.02-0.43-0.16-0.61-0.2c-0.33-0.07-0.93,0.09-1.34,0.1
				c-1.14,0.05-2.35-0.13-3.25-0.93c-2.04-1.82-1.42-4.86,0.93-5.89c-2.01-1.48-3.88-3.21-5.45-5.21c-0.75-0.96-1.48-1.97-2.04-3.07
				c-0.32-0.63-0.74-1.47-0.55-2.21c0.55-2.24,4.94-0.87,6.2-0.26c0.07-0.58,0.19-0.89,0.09-1.47c-0.08-0.48-0.13-0.96,0.05-1.43
				c0.29-0.76,1-1.22,1.67-1.52c0.87-0.4,1.82-0.56,2.76-0.6c0.48-0.02,1.59,0.3,1.84-0.26c0.19-0.45-0.08-1.28-0.16-1.72
				c-0.16-0.84-0.26-1.66-0.33-2.51c-0.1-1.12-0.18-2.24-0.26-3.36c-0.06-0.82-0.2-1.68-0.02-2.5c0.48-2.16,2.79-2.25,4.46-1.87
				c1.14,0.26,2.21,0.76,3.19,1.42c0.7,0.47,1.36,1.01,2.05,1.5c0.46,0.32,0.82,0.76,1.33,0.43c1.19-0.78,1.81-2.55,2.68-3.67
				c0.97-1.26,2.36-2.17,3.79-2.7c3.1-1.16,6.62-0.37,9.3,1.58c0.61,0.44,1.18,0.93,1.69,1.5c0.43,0.48,0.76,0.86,1.43,0.71
				c0.6-0.14,1.13-0.55,1.64-0.89c0.61-0.41,1.25-0.77,1.89-1.11c2.57-1.37,5.4-2.03,8.26-1.64c2.79,0.38,5.24,1.81,6.78,4.36
				c1.6,2.65,2.14,5.9,2.19,9.01c1.42-0.59,2.69-1.54,4.16-2.01c1.48-0.48,3.06-0.69,4.61-0.58c2.32,0.17,4.83,0.98,6.5,2.77
				c2.09,2.24,2.08,5.55,1.42,8.44c-0.33,1.44-0.81,2.84-1.3,4.23C155.9,33.46,155.35,34.86,154.35,35.85"/>
		</g>
		<g id="Bottom_x2F_Sitting_x2F_Skinny-Jeans-1" transform="translate(0.000000, 187.000000)">
			<path id="Skin" class="st0" d="M122.78,36.49c3.91,6.34,13.2,24.34,23.11,45.35c5.79,12.27,13.2,33.31,22.25,63.11l-11.52,5.26
				c-21.21-34.11-36.89-60.31-47.02-78.62c0.81,7.11,1.64,15.08,2.41,23.45c1.86,20.27,0,64.06-1,76.71
				c-0.63,7.95-11.43,6.28-12.44-0.02c-1.01-6.31-20.32-106.05-20.35-127.22c-0.01-7.07,13.81-13.43,22.05-8.48
				C105.92,30,116.63,26.52,122.78,36.49z"/>
			<path id="LegLower" class="st2" d="M141.8,137.67c-2.18-5.98-39.47-70.91-46.8-90.97c-3.23-8.83,23.32-27.17,32.79-11.93
				l39.53,93.64L141.8,137.67z"/>
			
				<g id="Accessories_x2F_Shoe_x2F_Flat-Sneaker" transform="translate(215.500000, 133.000000) rotate(30.000000) translate(-215.500000, -133.000000) translate(185.000000, 113.000000)">
				<path id="shoe" class="st3" d="M-6.45,48.21c-1.1-0.1-2.08,0.7-2.18,1.8h0c-0.27,2.87-0.78,4.94-1.52,6.23
					c-0.91,1.58-2.69,3.3-5.34,5.15l-4.38-0.58c-0.01,0-0.02,0-0.03,0c-0.55-0.06-1.04,0.34-1.1,0.89l-2.99,28.55
					c-0.77,1.96-1.78,4.41-3.03,7.34c-1.24,2.93,0.6,4.97,5.53,6.12C-3.72,72.95,5.68,56.67,6.73,54.85
					c-2.7-2.25-4.82-3.83-6.39-4.73c-1.28-0.74-3.5-1.37-6.64-1.9C-6.35,48.22-6.4,48.21-6.45,48.21z"/>
			</g>
			<g id="Accessories_x2F_Shoe_x2F_Flat-Sneaker_1_" transform="translate(242.000000, 126.000000)">
				<path id="shoe_1_" class="st3" d="M-128.52,40.55c-0.46-1-1.65-1.44-2.65-0.98v0c-2.62,1.2-4.67,1.8-6.15,1.8
					c-1.83,0-4.2-0.68-7.13-2.05l-1.69-4.09c0-0.01-0.01-0.02-0.01-0.03c-0.22-0.5-0.82-0.73-1.32-0.51l-26.22,11.69
					c-2.09,0.31-4.71,0.66-7.87,1.05c-3.16,0.39-4,3-2.54,7.85c35.51,0,54.31,0,56.4,0c0.6-3.46,0.9-6.09,0.9-7.89
					c0-1.48-0.56-3.72-1.68-6.7C-128.48,40.63-128.5,40.59-128.52,40.55z"/>
			</g>
			<path id="Leg-and-Butt" class="st4" d="M88.24,33.67c23.42-4.37,86.49-17.09,98.59-18.39h59.39
				c-1.01,35.02-13.41,53.93-43.39,53.93c-20.79,0-90.11-7.81-91.84-6.92c-1.16,0.6,0.25,28.54,4.23,83.84l-27.15-0.02
				c-0.01-5.85-12.62-67.82-12.62-94.39C75.45,44.39,78.22,35.54,88.24,33.67z"/>
			<g>
				<path class="st5" d="M252.46,102.71c16.11,0,29.66-14.11,32.22-33.53l26.46-200.37c0.42-3.15-0.32-6.35-2.01-8.79
					c-1.69-2.44-4.17-3.83-6.78-3.83h-12.46c-16.08,0-29.64,14.07-32.22,33.45L234.94,44.71H159.2c-14.07,0-26.51,10.96-30.97,27.26
					l-6.46,16.42c-0.9,3.32-0.44,6.97,1.23,9.8c1.66,2.84,4.36,4.52,7.22,4.52L252.46,102.71L252.46,102.71z"/>
				<path class="st5" d="M186.61,157.09h23.74V95.46h-23.74V157.09z"/>
				<path class="st5" d="M228.16,189.72v-18.13c0-13.99-9.32-25.38-20.77-25.38h-17.81c-11.46,0-20.77,11.38-20.77,25.38v18.13
					c0,6,3.99,10.88,8.9,10.88h41.55C224.17,200.59,228.16,195.72,228.16,189.72z"/>
				<path class="st5" d="M263.77,189.72c0-8-5.31-14.5-11.87-14.5H145.06c-6.56,0-11.87,6.5-11.87,14.5s5.31,14.5,11.87,14.5H251.9
					C258.46,204.22,263.77,197.72,263.77,189.72z"/>
			</g>
		</g>
		<g id="Body_x2F_Pointing-Forward" transform="translate(22.000000, 82.000000)">
			<path id="Skin_1_" class="st6" d="M142.76,71.73l-25.22-23.09c-13.29-3.66-19.36-6.34-18.23-8.04c1.7-2.54,5.26-0.4,6.68-1.94
				c1.43-1.53-1.29-6.88-4.09-11.85c-2.8-4.97,0.19-4.54,1.91-3.82c5.6,3.79,11.29,9.12,17.06,15.97l34.71,19.01L142.76,71.73z
				 M100.35,89.32c-6.58-4.75-12.71-7.92-18.37-9.5c-10.83-3.02-15.21-5.33-20.51-12.07c-2.83-3.61-5.24-10.86-2.54-13.23
				c1.82-1.6,12.4,6.27,16.73,7.16s0.35-9.39,2.64-8.33c2.98,0.05,5.53,4.15,7.67,12.29l15.25,8.38L100.35,89.32z"/>
			<path id="Sleeve" class="st7" d="M163.4,76.37c-14.67,0.41-31.45-9.32-43.38-21.16l6.79-15.15
				c17.3,10.98,33.51,13.55,45.67,13.68C180.87,62.07,174.96,76.05,163.4,76.37z"/>
			<path id="Clothes" class="st8" d="M171.67,15.28h27.75c3.04,0,23.72,39.64,23.74,65.4c0.02,23.52,21.9,38.45,10.58,75.21
				c-18.07-3.56-71.82,14.52-81-5c-4.46-9.49-5.79-19.88-5.21-30.8c-18.4-0.4-40.74-6.47-66.8-20.08
				c-0.57-6.64,2.92-17.75,10.45-33.34c30.38,10.81,52.02,14.61,64.93,11.39C162.44,56.62,170.14,34.95,171.67,15.28z"/>
		</g>
	</g>
</g>
</svg>
