<?xml version="1.0" encoding="utf-8"?>
<!-- Generator: Adobe Illustrator 25.1.0, SVG Export Plug-In . SVG Version: 6.00 Build 0)  -->
<svg version="1.1" id="Layer_1" xmlns="http://www.w3.org/2000/svg" xmlns:xlink="http://www.w3.org/1999/xlink" x="0px" y="0px"
	 viewBox="0 0 306.65 401.9" style="enable-background:new 0 0 306.65 401.9;" xml:space="preserve">
<style type="text/css">
	.st0{fill:#CFD1D2;}
	.st1{fill-rule:evenodd;clip-rule:evenodd;fill:#D5C5A7;}
	.st2{fill-rule:evenodd;clip-rule:evenodd;fill:#3C4CA0;}
	.st3{fill-rule:evenodd;clip-rule:evenodd;fill:#465CAA;}
	.st4{fill-rule:evenodd;clip-rule:evenodd;fill:#E4E4E4;}
	.st5{fill-rule:evenodd;clip-rule:evenodd;fill:#8D5B46;}
	.st6{fill-rule:evenodd;clip-rule:evenodd;fill:#D5C5A8;}
	.st7{fill-rule:evenodd;clip-rule:evenodd;fill:#5F918E;}
	.st8{fill-rule:evenodd;clip-rule:evenodd;fill:#786A75;}
	.st9{fill-rule:evenodd;clip-rule:evenodd;fill:#669B98;}
	.st10{fill-rule:evenodd;clip-rule:evenodd;fill:#010101;fill-opacity:0.1;}
</style>
<g>
	<path class="st0" d="M148.46,339.83h-23.74V278.2h23.74V339.83z"/>
	<path class="st0" d="M106.91,372.46v-18.13c0-13.99,9.32-25.38,20.77-25.38h17.81c11.46,0,20.77,11.38,20.77,25.38v18.13
		c0,6-3.99,10.88-8.9,10.88h-41.55C110.9,383.33,106.91,378.46,106.91,372.46z"/>
	<path class="st0" d="M71.3,372.46c0-8,5.31-14.5,11.87-14.5h106.83c6.56,0,11.87,6.5,11.87,14.5s-5.31,14.5-11.87,14.5H83.17
		C76.61,386.96,71.3,380.46,71.3,372.46z"/>
	<path class="st0" d="M82.62,285.45c-16.11,0-29.66-14.11-32.22-33.53L23.94,51.55c-0.42-3.15,0.32-6.35,2.01-8.79
		c1.69-2.44,4.17-3.83,6.78-3.83h12.46c16.08,0,29.64,14.07,32.22,33.45l22.73,155.06h75.73c14.07,0,26.51,10.96,30.97,27.26
		l6.46,16.42c0.9,3.32,0.44,6.97-1.23,9.8c-1.66,2.84-4.36,4.52-7.22,4.52L82.62,285.45L82.62,285.45z"/>
</g>
<g id="Bottom_x2F_Sitting_x2F_Sweat-Pants">
	<g id="Objects_x2F_Seat_x2F_Ball" transform="translate(10.000000, 42.000000)">
	</g>
	<path id="Skin_1_" class="st1" d="M247.81,344.46c-12.81-28.36-22.08-53.05-25.8-66.08c-6.37-22.31-11.21-41.94-12.44-49.27
		c-2.92-17.48,22.46-18.5,25.82-9.81c5.08,13.15,13.94,56.35,24.59,121.61L247.81,344.46z M215.41,360.26
		c-6.19-11.02-26.17-49.84-32.93-68.96c-1.94-5.49-3.78-10.82-5.47-15.84c-5.01-14.91,21.53-26.62,25.66-12.16
		c10.3,36,22.87,87.33,24.09,91.7C228.47,361.13,219.31,367.19,215.41,360.26z"/>
	<path id="Leg-Back" class="st2" d="M197.89,224.57L134.3,192.2v-7.05h7.56c16.46-0.95,64.54-1.59,94.31,30.14
		c1.28,1.36,6.73,7.27,12.76,17.35c19.18,32.08,19.23,64.77,17.72,82.44c-0.85,1.52-4.75,8.1-13.1,10.79
		c-9.54,3.07-17.46-1.34-18.72-2.07c-7.34-12.35-15.16-27.55-22.02-45.5C205.14,258.25,200.62,239.89,197.89,224.57z"/>
	<path class="st3" d="M218.1,335.88c-1.39,1.27-9.56,8.45-18.07,6.52c-13.72-3.1-18.76-27.67-22.06-43.75
		c-6.71-32.72,1.59-37.27-5.53-47.46c-16.54-23.67-64.24-4.32-77.13-27.02c-6.54-11.53-4.73-35.4-4.65-36.09
		c0.13-1.06,0.65-1.99,1.4-2.65c0.76-0.66,1.74-1.06,2.82-1.06H120h25.11c0.22,0,0.43,0.02,0.65,0.05c0.06,0.01,0.13,0.02,0.19,0.03
		c0,0,0.22,0.04,0.44,0.11c41.67,12.91,63.18,44.54,63.18,44.54c9.02,14.23,11.32,26.49,14.63,44.12
		C228.04,293.66,233.36,321.96,218.1,335.88z"/>
	
		<g id="Accessories_x2F_Shoe_x2F_Flat-Sneaker" transform="translate(143.959294, 93.331820) rotate(64.000000) translate(-143.959294, -93.331820) translate(113.459294, 73.331820)">
		<path id="shoe" class="st4" d="M300.98,76.55c2.66,1.76,4.72,2.8,6.16,3.13c1.76,0.4,4.39,0.7,7.9,0.88
			c0.47-2.04,4.65-20.37,12.57-54.98c-4.4-2.51-7.14-2.27-8.22,0.73c-1.08,2.99-2,5.47-2.77,7.44l-17.23,22.95
			c-0.33,0.44-0.24,1.07,0.2,1.4c0.01,0.01,0.02,0.01,0.02,0.02l3.61,2.55c0.68,3.15,0.81,5.62,0.41,7.4
			c-0.33,1.45-1.37,3.31-3.12,5.6l0,0c-0.67,0.88-0.51,2.13,0.37,2.8C300.9,76.5,300.94,76.53,300.98,76.55z"/>
	</g>
	<g id="Accessories_x2F_Shoe_x2F_Flat-Sneaker_1_" transform="translate(263.000000, 132.000000)">
		<path id="shoe_1_" class="st4" d="M-21.02,210.56c-1.12,2.99-1.68,5.22-1.68,6.7c0,1.8,0.3,4.43,0.9,7.89c2.09,0,20.89,0,56.4,0
			c1.47-4.85,0.62-7.46-2.54-7.85c-3.16-0.39-5.78-0.74-7.87-1.05l-26.22-11.69c-0.5-0.22-1.1,0-1.32,0.51
			c0,0.01-0.01,0.02-0.01,0.03l-1.69,4.09c-2.92,1.36-5.3,2.05-7.13,2.05c-1.48,0-3.54-0.6-6.15-1.8l0,0
			c-1-0.46-2.19-0.02-2.65,0.98C-20.99,210.47-21.01,210.51-21.02,210.56z"/>
	</g>
	<path class="st3" d="M180.35,233.41"/>
	<path class="st3" d="M243.53,265"/>
</g>
<g id="Head_x2F_Front_x2F_Short-Beard">
	<g id="Head" transform="translate(54.000000, 31.000000)">
		<path class="st1" d="M53.39,32.08c-6-5.95-10.07-13.24-9.39-21.41c1.96-23.54,40.78-18.36,48.33-6.48
			c7.55,11.88,6.65,42.02-3.11,44.14c-3.89,0.85-12.18-1.23-20.62-5.52l5.3,31.63H42.62L53.39,32.08z"/>
	</g>
	<path id="Hair" class="st5" d="M123.43,41.69c1.2,14.67,4.36,22.01,9.5,22.01c7.71,0,14.24-4.3,17.62-4.3
		c2.46,0,1.91,2.71,0.28,4.72c-1.35,1.66-7.91,3.26-7.91,5.83c0,2.57,5.19,0.58,5.19,2.11c0,2.52,0.91,7.27-4.07,7.27
		c-5.04,0-19.49-1.62-21.97-8.2c-1.6-4.25-2.63-13.05-3.1-26.4c-0.31-0.03-0.62-0.05-0.93-0.05c-4.32,0-7.82,3.08-7.82,6.88
		c0,1.93,0.9,3.67,2.36,4.92c-1.81,2.25-3.84,4.59-6.16,7.01c-8.73-4.61-15.21-18.09-6.67-31.05c2.36-6.35,7.7-9.74,14.01-11.31
		c5.11-1.88,10.41-2.09,14.89-0.96c8.78,0.66,16.61,3.02,18.83,4.41c0,7.31-1.61,9.48-15.36,9.29
		C128.73,35.45,126.13,38.15,123.43,41.69z"/>
</g>
<g id="Body_x2F_Hoodie">
	<path id="Skin" class="st6" d="M171.53,166.89l31.9,23.42c8.65,2.33,15.88,5.24,21.68,8.71c1.37,1.25,3.03,3.78-2.66,3.34
		c-5.69-0.44-11.69-0.64-12.47,1.3s2.66,4.26,1.07,6.88c-1.06,1.74-6.05-2.63-14.99-13.12l-31.59-13.1L171.53,166.89z M52.16,164.3
		l20.9,0.08c-12.9,41.65-19.87,63.75-20.9,66.3c-2.31,5.73,2.58,14.47,4.68,19.16c-6.82,3.05-6.09-8.25-14.7-4.25
		c-7.85,3.65-13.83,10.27-22.9,4.67c-1.12-0.69-2.34-3.28,0.62-5.3c7.36-5.05,17.96-13.88,19.39-16.78
		C41.2,224.22,45.51,202.93,52.16,164.3z"/>
	<path id="Coat-Back" class="st7" d="M109.34,84.36l8.65-1.43c32.08,26.71,45.26,78.01,84.59,105.19l-9.47,11.31
		C124.89,191.29,107.98,128.71,109.34,84.36z"/>
	<path id="Shirt" class="st8" d="M73.58,188.68c36.03,0,62.53,0,79.5,0c3.63,0,2.95-4.84,2.42-7.29
		c-6.06-28.2-29.72-58.6-29.72-98.74l-22.93-3.32C83.88,107.49,77.32,142.16,73.58,188.68z"/>
	<path id="Coat-Front" class="st9" d="M71.36,103.54c-3.21-0.92-5.74-3.07-7.61-6.45c-8.07-14.56-5.15-22.57,3.47-25.2
		c8.62-2.63,16.31,2.79,30.04,2.79c0.75,0,1.43,0.05,2.05,0.14l6.91,0.39c19.82,67.18,25.29,112,16.4,134.47H62.4
		c-3.57,8.32-6.98,15.32-10.24,21H35.75C34.21,180.75,46.08,138.37,71.36,103.54z"/>
	<path id="Shade" class="st10" d="M75.51,175.18c1.89,15.85,4.97,27.35,9.23,34.5H62.4C66.56,199.98,70.93,188.48,75.51,175.18z"/>
</g>
</svg>
