<?xml version="1.0" encoding="utf-8"?>
<!-- Generator: Adobe Illustrator 25.1.0, SVG Export Plug-In . SVG Version: 6.00 Build 0)  -->
<svg version="1.1" id="Layer_1" xmlns="http://www.w3.org/2000/svg" xmlns:xlink="http://www.w3.org/1999/xlink" x="0px" y="0px"
	 viewBox="0 0 362.18 403.72" style="enable-background:new 0 0 362.18 403.72;" xml:space="preserve">
<style type="text/css">
	.st0{fill:#CFD1D2;}
	.st1{fill-rule:evenodd;clip-rule:evenodd;fill:#B28B68;}
	.st2{fill-rule:evenodd;clip-rule:evenodd;fill:#2F3776;}
	.st3{fill-rule:evenodd;clip-rule:evenodd;fill:#E4E4E4;}
	.st4{fill-rule:evenodd;clip-rule:evenodd;fill:#5C64AC;}
	.st5{fill-rule:evenodd;clip-rule:evenodd;fill:#2D2D2C;}
	.st6{fill-rule:evenodd;clip-rule:evenodd;fill:#669B98;}
	.st7{fill-rule:evenodd;clip-rule:evenodd;fill:#010101;fill-opacity:0.2;}
	.st8{fill-rule:evenodd;clip-rule:evenodd;fill:#786A75;}
	.st9{fill-rule:evenodd;clip-rule:evenodd;fill:#191947;}
	.st10{fill-rule:evenodd;clip-rule:evenodd;fill:#010101;fill-opacity:0.1;}
	.st11{fill-rule:evenodd;clip-rule:evenodd;fill:#010101;fill-opacity:0.4;}
</style>
<g>
	<path class="st0" d="M156.19,342.75h-23.74v-61.63h23.74V342.75z"/>
	<path class="st0" d="M114.64,375.38v-18.13c0-13.99,9.32-25.38,20.77-25.38h17.81c11.46,0,20.77,11.38,20.77,25.38v18.13
		c0,6-3.99,10.88-8.9,10.88h-41.55C118.63,386.25,114.64,381.38,114.64,375.38z"/>
	<path class="st0" d="M79.03,375.38c0-8,5.31-14.5,11.87-14.5h106.83c6.56,0,11.87,6.5,11.87,14.5s-5.31,14.5-11.87,14.5H90.9
		C84.33,389.88,79.03,383.38,79.03,375.38z"/>
	<path class="st0" d="M90.34,288.37c-16.11,0-29.66-14.11-32.22-33.53L31.66,54.47c-0.42-3.15,0.32-6.35,2.01-8.79
		c1.69-2.44,4.17-3.83,6.78-3.83h12.46c16.08,0,29.64,14.07,32.22,33.45l22.73,155.06h75.73c14.07,0,26.51,10.96,30.97,27.26
		l6.46,16.42c0.9,3.32,0.44,6.97-1.23,9.8c-1.66,2.84-4.36,4.52-7.22,4.52H90.34L90.34,288.37z"/>
</g>
<g id="Bottom_x2F_Sitting_x2F_Baggy-Pants">
	<path id="LegLower" class="st1" d="M306.21,342.35c-19.72-24.08-33.06-41.92-40.02-53.55c-11.93-19.9-21.69-37.61-24.77-44.37
		c-7.34-16.13,16.91-23.68,22.4-16.16c8.31,11.39,26.05,47.22,53.23,107.49L306.21,342.35z"/>
	<path id="LegLower_1_" class="st2" d="M265.81,335.35l-36.69-92.36c-7.85-16.84,30.05-27.9,35.82-20.07
		c13.09,17.79,44.22,87.97,48.12,93.27L265.81,335.35z"/>
	
		<g id="Lower-Leg" transform="translate(220.172961, 98.499284) rotate(39.000000) translate(-220.172961, -98.499284) translate(192.672961, 26.499284)">
		<path id="LegLower_2_" class="st1" d="M124.42,274.45c-1.01-12.6-2.88-56.22-1.01-76.41c0.54-5.8,1.1-11.41,1.68-16.67
			c1.7-15.64,30.7-15.15,28.4-0.29c-5.74,37.01-15.83,88.87-16.55,93.35C135.91,280.71,125.05,282.37,124.42,274.45z"/>
	</g>
	
		<g id="Accessories_x2F_Shoe_x2F_Flat-Sneaker" transform="translate(189.500000, 140.000000) rotate(30.000000) translate(-189.500000, -140.000000) translate(159.000000, 120.000000)">
		<path id="shoe" class="st3" d="M99.46,178.93c-1.12,2.99-1.68,5.22-1.68,6.7c0,1.8,0.3,4.43,0.9,7.89c2.09,0,20.89,0,56.4,0
			c1.47-4.85,0.62-7.46-2.54-7.85c-3.16-0.39-5.78-0.74-7.87-1.05l-26.22-11.69c-0.5-0.22-1.1,0-1.32,0.51
			c0,0.01-0.01,0.02-0.01,0.03l-1.69,4.09c-2.92,1.36-5.3,2.05-7.13,2.05c-1.48,0-3.54-0.6-6.15-1.8l0,0
			c-1-0.46-2.19-0.02-2.65,0.98C99.49,178.84,99.48,178.88,99.46,178.93z"/>
	</g>
	<g id="Accessories_x2F_Shoe_x2F_Flat-Sneaker_1_" transform="translate(288.000000, 132.000000)">
		<path id="shoe_1_" class="st3" d="M9.73,206.75c-1.12,2.99-1.68,5.22-1.68,6.7c0,1.8,0.3,4.43,0.9,7.89c2.09,0,20.89,0,56.4,0
			c1.47-4.85,0.62-7.46-2.54-7.85c-3.16-0.39-5.78-0.74-7.87-1.05l-26.22-11.69c-0.5-0.22-1.1,0-1.32,0.51
			c0,0.01-0.01,0.02-0.01,0.03l-1.69,4.09c-2.92,1.36-5.3,2.05-7.13,2.05c-1.48,0-3.54-0.6-6.15-1.8l0,0
			c-1-0.46-2.19-0.02-2.65,0.98C9.76,206.66,9.75,206.7,9.73,206.75z"/>
	</g>
	<path id="Leg-and-Butt" class="st4" d="M215.91,245.09c-30.5-4.97-50.92-8.37-61.28-10.19c-29.52-5.21-38.13-21.09-33.04-55.76
		h54.4c7.2,2.08,37.28,14.94,90.23,38.57c9.53,4.73,7.75,18.68,6.01,23.27c-0.07,0.19-16.13,27.71-48.19,82.57l-44.5-28.35
		L216,248.43C216.96,246.49,216.93,245.38,215.91,245.09z"/>
</g>
<g id="Head_x2F_Front_x2F_Hijab-1">
	<g id="Head" transform="translate(54.000000, 31.000000)">
		<path class="st1" d="M84.74,21c-4.61-5.41-7.73-12.04-7.21-19.46c1.5-21.4,31.29-16.69,37.09-5.89c5.79,10.8,5.11,38.2-2.38,40.13
			c-2.99,0.77-9.35-1.12-15.82-5.02l4.06,28.76h-24L84.74,21z"/>
	</g>
	<g id="Hijab" transform="translate(36.000000, 28.000000)">
		<path id="Front" class="st5" d="M127.21-8.48c-0.55-0.33-1.7-1.02-2.28-1.27c-0.14-0.06-1.1-0.75-1.13-0.74
			c-0.73,0.25-2.85,1.16-3.03,1.94c-0.03,0.06-0.06,0.12-0.08,0.16c-0.3,0.55-0.58,1.1-0.84,1.67c-0.58,1.24-1.07,2.54-1.55,3.83
			c-0.93,2.51-1.73,5.07-2.47,7.64c-0.75,2.62-1.39,5.27-2.11,7.89c-1.03,3.78-2.34,7.47-3.37,11.25c-0.65,2.41-1.01,4.86-0.84,7.34
			c0,0.03,0,0.06,0.01,0.09c0,0.01,0,0.02,0,0.04c0.03,0.38,0.07,0.76,0.13,1.15c0.05,0.33,0.1,0.66,0.15,0.99
			c0.93-1.86,1.65-3.91,2.4-5.86c0.07-0.19,0.14-0.38,0.21-0.57c0.24-0.39,0.49-0.79,0.74-1.18c1.58-2.46,3.18-4.91,4.7-7.42
			c2.73-4.51,5.44-9.11,8.68-13.25c0.96-1.22,1.94-2.43,2.88-3.66c0.54-0.7,1.06-1.41,1.57-2.14c0.36-0.52,1.94-2.33,1.37-3.41
			C132.06-4.53,128.64-7.63,127.21-8.48z"/>
		<path id="Turban" class="st6" d="M128.96-9.32c0.53,0.2,0.27-1.03-0.24-1.47c-2.4-2.01-11.57-2.74-19.55-0.9
			c-5.35,1.23-11.56,4.29-15.84,8.22c-3.85,3.55-6.5,9.23-7.86,14.72c-1.43,5.77-1.65,11.78-0.85,17.69
			c0.18,1.3,0.55,2.54,0.76,3.81c0.24,1.43,0.36,2.81,0.78,4.2c0.26,0.85,0.7,1.69,0.92,2.55c0.25,0.98,0.1,1.88-0.09,2.88
			c-0.3,1.62-0.67,3.24-1.19,4.79c-0.79,2.33-1.75,4.51-2.35,6.92c-0.8,3.21-4.14,13.67-1.7,16.52h46.52
			c-1.17-3.54-4.69-7.71-5.4-11.49c-0.42-2.23-0.62-7.11-0.66-7.28c-1.05-8-3.1-11.83-4.38-13.21c-1.28-1.39-2.99-1.81-3.08-3.02
			c-0.36-4.98,1.42-9.75,2.73-14.39c1.56-5.54,2.71-11.21,4.32-16.73C122.51,2.05,126.19-10.36,128.96-9.32z"/>
		<path id="Shade" class="st7" d="M114.95-1.49c-1.75,5.57-2.13,8.54-1.75,16.14h-0.86c-1.61-7.18-0.18-13.93,1.53-16.14H114.95z
			 M94.04,19.24c3.27,7.93,4.76,12.62,13.89,19.03l-0.7,0.49c-9.06-5.14-11.7-11.26-13.87-19.2L94.04,19.24z M104.85,4.8
			c1.48,11.26,1.92,17.69,9.65,30.01l-0.82,0.25c-7.96-10.72-9.22-19.48-9.6-30.2L104.85,4.8z M96.31,38.24l0.7-0.86
			c9.61,3.01,8.54,9.22,20.64,15.51l-1.01,0.61C106.04,49.14,103.56,39.76,96.31,38.24z"/>
	</g>
</g>
<g id="Body_x2F_Trench-Coat">
	<path id="Skin" class="st1" d="M204.58,150.49l31.9,23.42c8.65,2.33,15.88,5.24,21.68,8.71c1.37,1.25,3.03,3.78-2.66,3.34
		s-11.69-0.64-12.47,1.3s2.66,4.26,1.07,6.88c-1.06,1.74-6.05-2.63-14.99-13.12l-31.59-13.1L204.58,150.49z M60.23,140.73
		l17.61,3.19C57.41,184.48,46.46,205.93,45,208.26c-3.27,5.25,0.03,14.7,1.28,19.68c-7.25,1.82-4.57-9.18-13.74-6.74
		c-8.37,2.23-15.4,7.72-23.36,0.63c-0.98-0.87-1.73-3.64,1.53-5.12c8.12-3.69,20.1-10.55,22.01-13.16
		C35.33,199.99,44.5,179.05,60.23,140.73z"/>
	<path id="Back-Arm" class="st8" d="M221.59,155.51c4.1-0.29,8.57,0.39,13.35,2c2.36,0.79,3.62,3.35,2.83,5.7
		c-0.46,1.37-1.52,2.37-2.78,2.81c0.92,0.67,1.84,1.33,2.77,1.99l-8.05,16.43c-33.86-16.88-65.69-29.61-80.19-57.49
		c-4.87-9.36-3.22-41.13-3.68-52.69l10.7-4.39C171.45,100.69,191.62,130.25,221.59,155.51z"/>
	<path id="Shirt" class="st9" d="M96.85,180.34c33.74,3.35,60.3,3.35,79.67,0c2.4-0.42,2.29-9.77,1.18-12.33
		c-17.33-39.79-28.74-68.92-28.74-96.55c-3.18,1.5-8.75,1.73-16.7,0.68C110.9,100.62,101.07,133.29,96.85,180.34z"/>
	<path id="Coat-Front" class="st8" d="M90.2,187.41c-1.07-1-1.62-2.51-1.35-4.06l0.52-2.95c0.35-2,1.98-3.46,3.9-3.69
		c0.34-1.5,0.62-2.99,0.86-4.47c2.02-12.5-1.43-24.75-1.27-36.78c-16.08,13.72-30.51,37.41-43.28,71.07l-18.89-5.56
		c0.72-2.68,1.47-5.32,2.24-7.93c-2.18-1.24-4.73-6.91-2.89-7.86c1.89-0.98,3.9-1.67,6.01-2.08
		c17.32-52.16,45.64-90.31,84.96-114.44h5.4h5.97c-3.35,44.28,42.9,140.95,26.84,223.52c-29.68,6.63-72.06-14-113.31,2.48
		C47.45,261.4,78.2,222.34,90.2,187.41z"/>
	<polygon id="Shade-Lapel" class="st10" points="121.85,71.46 116.69,87.33 127.08,99.22 117.69,108.57 140.4,147.46 112.62,108.64 
		121.85,99.22 112.62,88.71 	"/>
	<path id="Buttons" class="st11" d="M136.5,173.16c-2.21,0-4-2.01-4-4.5s1.79-4.5,4-4.5s4,2.01,4,4.5S138.71,173.16,136.5,173.16z
		 M141.5,199.01c-2.21,0-4-2.01-4-4.5s1.79-4.5,4-4.5s4,2.01,4,4.5S143.71,199.01,141.5,199.01z M142.5,224.86c-2.21,0-4-2.01-4-4.5
		c0-2.48,1.79-4.5,4-4.5s4,2.01,4,4.5C146.5,222.85,144.71,224.86,142.5,224.86z"/>
</g>
</svg>
