<?xml version="1.0" encoding="utf-8"?>
<!-- Generator: Adobe Illustrator 25.1.0, SVG Export Plug-In . SVG Version: 6.00 Build 0)  -->
<svg version="1.1" id="bold" xmlns="http://www.w3.org/2000/svg" xmlns:xlink="http://www.w3.org/1999/xlink" x="0px" y="0px"
	 viewBox="0 0 512 512" style="enable-background:new 0 0 512 512;" xml:space="preserve">
<style type="text/css">
	.st0{fill:#A7A9AC;}
</style>
<g>
	<path class="st0" d="M352,442.7h-42.7V352H352V442.7z"/>
	<path class="st0" d="M277.3,490.7V464c0-20.6,16.7-37.3,37.3-37.3h32c20.6,0,37.3,16.7,37.3,37.3v26.7c0,8.8-7.2,16-16,16h-74.7
		C284.5,506.7,277.3,499.5,277.3,490.7z"/>
	<path class="st0" d="M213.3,490.7c0-11.8,9.5-21.3,21.3-21.3h192c11.8,0,21.3,9.6,21.3,21.3s-9.5,21.3-21.3,21.3h-192
		C222.9,512,213.3,502.4,213.3,490.7z"/>
	<path class="st0" d="M304.2,227.9c-2.9-8.7-11.1-14.6-20.2-14.6H170.7v-42.7h113.3c27.6,0,52,17.6,60.7,43.8l22.3,66.8l-40.4,13.5
		L304.2,227.9z"/>
	<path class="st0" d="M233.7,362.7c-28.9,0-53.3-20.8-57.9-49.3L128.2,18.6c-0.7-4.6,0.6-9.3,3.6-12.9S139.3,0,144,0l22.4,0
		c28.9,0,53.3,20.7,57.9,49.2l40.9,228.1h136.1c25.3,0,47.6,16.1,55.7,40.1l11.6,24.1c1.6,4.9,0.8,10.3-2.2,14.4
		c-3,4.2-7.8,6.7-13,6.7L233.7,362.7L233.7,362.7z"/>
</g>
</svg>
